<mxfile host="Electron" modified="2024-03-22T22:20:14.188Z" agent="Mozilla/5.0 (Windows NT 10.0; Win64; x64) AppleWebKit/537.36 (KHTML, like Gecko) draw.io/24.0.4 Chrome/120.0.6099.109 Electron/28.1.0 Safari/537.36" etag="mZo8SJbyDiJuqUkwtPMV" version="24.0.4" type="device">
  <diagram name="ページ1" id="LE8fIzdrHe0wcv1LTvfw">
    <mxGraphModel dx="866" dy="518" grid="1" gridSize="10" guides="1" tooltips="1" connect="1" arrows="1" fold="1" page="1" pageScale="1" pageWidth="1600" pageHeight="1200" math="0" shadow="0">
      <root>
        <mxCell id="0" />
        <mxCell id="cFaB45KztUIKXS-_cTrr-4" value="背景" style="locked=1;" parent="0" visible="0" />
        <mxCell id="cFaB45KztUIKXS-_cTrr-5" value="" style="rounded=0;whiteSpace=wrap;html=1;strokeWidth=3;" parent="cFaB45KztUIKXS-_cTrr-4" vertex="1">
          <mxGeometry x="1" y="1" width="1595" height="1180" as="geometry" />
        </mxCell>
        <mxCell id="cFaB45KztUIKXS-_cTrr-6" value="" style="rounded=0;whiteSpace=wrap;html=1;fillColor=#B3B3B3;fontColor=#333333;strokeColor=#666666;" parent="cFaB45KztUIKXS-_cTrr-4" vertex="1">
          <mxGeometry width="1595" height="60" as="geometry" />
        </mxCell>
        <mxCell id="cFaB45KztUIKXS-_cTrr-7" value="&lt;font style=&quot;font-size: 48px;&quot;&gt;×&lt;/font&gt;" style="rounded=0;whiteSpace=wrap;html=1;" parent="cFaB45KztUIKXS-_cTrr-4" vertex="1">
          <mxGeometry x="1550" y="10" width="40" height="40" as="geometry" />
        </mxCell>
        <mxCell id="cFaB45KztUIKXS-_cTrr-8" value="" style="rounded=0;whiteSpace=wrap;html=1;" parent="cFaB45KztUIKXS-_cTrr-4" vertex="1">
          <mxGeometry x="830" y="670" width="120" height="60" as="geometry" />
        </mxCell>
        <mxCell id="cFaB45KztUIKXS-_cTrr-9" value="ウインドウ" style="locked=1;" parent="0" />
        <mxCell id="cFaB45KztUIKXS-_cTrr-10" value="" style="rounded=0;whiteSpace=wrap;html=1;strokeWidth=3;" parent="cFaB45KztUIKXS-_cTrr-9" vertex="1">
          <mxGeometry x="1" y="1" width="2559" height="3569" as="geometry" />
        </mxCell>
        <mxCell id="cFaB45KztUIKXS-_cTrr-11" value="" style="rounded=0;whiteSpace=wrap;html=1;fillColor=#B3B3B3;fontColor=#333333;strokeColor=#666666;" parent="cFaB45KztUIKXS-_cTrr-9" vertex="1">
          <mxGeometry width="1595" height="60" as="geometry" />
        </mxCell>
        <mxCell id="cFaB45KztUIKXS-_cTrr-12" value="&lt;font style=&quot;font-size: 48px;&quot;&gt;×&lt;/font&gt;" style="rounded=0;whiteSpace=wrap;html=1;" parent="cFaB45KztUIKXS-_cTrr-9" vertex="1">
          <mxGeometry x="1550" y="10" width="40" height="40" as="geometry" />
        </mxCell>
        <mxCell id="9JbMDj_ZPigItXiSbsYy-121" value="" style="line;strokeWidth=2;direction=south;html=1;dashed=1;dashPattern=12 12;" parent="cFaB45KztUIKXS-_cTrr-9" vertex="1">
          <mxGeometry x="1600" y="10" width="11.76" height="3510" as="geometry" />
        </mxCell>
        <mxCell id="cFaB45KztUIKXS-_cTrr-14" value="名称未設定レイヤ" style="" parent="0" />
        <mxCell id="TxczZguwrJ-QLl2Ewce2-47" value="&lt;font style=&quot;font-size: 30px;&quot;&gt;履歴詳細&lt;/font&gt;" style="rounded=0;whiteSpace=wrap;html=1;align=left;dashed=1;dashPattern=8 8;verticalAlign=bottom;" parent="cFaB45KztUIKXS-_cTrr-14" vertex="1">
          <mxGeometry x="53" y="310" width="230" height="46" as="geometry" />
        </mxCell>
        <mxCell id="9JbMDj_ZPigItXiSbsYy-15" value="&lt;span style=&quot;font-size: 30px;&quot;&gt;書証Id&lt;/span&gt;" style="rounded=0;whiteSpace=wrap;html=1;align=right;dashed=1;dashPattern=8 8;verticalAlign=bottom;" parent="cFaB45KztUIKXS-_cTrr-14" vertex="1">
          <mxGeometry x="59" y="80" width="230" height="46" as="geometry" />
        </mxCell>
        <mxCell id="9JbMDj_ZPigItXiSbsYy-16" value="&lt;font style=&quot;font-size: 30px;&quot;&gt;書証を参照&lt;/font&gt;" style="rounded=1;whiteSpace=wrap;html=1;" parent="cFaB45KztUIKXS-_cTrr-14" vertex="1">
          <mxGeometry x="1128" y="151" width="210" height="60" as="geometry" />
        </mxCell>
        <mxCell id="9JbMDj_ZPigItXiSbsYy-17" value="&lt;div style=&quot;&quot;&gt;&lt;span style=&quot;background-color: initial;&quot;&gt;&lt;font style=&quot;font-size: 30px;&quot;&gt;123,456&lt;/font&gt;&lt;/span&gt;&lt;/div&gt;" style="rounded=0;whiteSpace=wrap;html=1;align=right;fillColor=#CCCCCC;" parent="cFaB45KztUIKXS-_cTrr-14" vertex="1">
          <mxGeometry x="371" y="1007" width="220" height="48" as="geometry" />
        </mxCell>
        <mxCell id="9JbMDj_ZPigItXiSbsYy-18" value="&lt;div style=&quot;&quot;&gt;&lt;span style=&quot;background-color: initial;&quot;&gt;&lt;font style=&quot;font-size: 30px;&quot;&gt;*金額&lt;/font&gt;&lt;/span&gt;&lt;/div&gt;" style="rounded=0;whiteSpace=wrap;html=1;align=right;dashed=1;dashPattern=8 8;verticalAlign=bottom;" parent="cFaB45KztUIKXS-_cTrr-14" vertex="1">
          <mxGeometry x="70" y="1004" width="230" height="48" as="geometry" />
        </mxCell>
        <mxCell id="9JbMDj_ZPigItXiSbsYy-19" value="&lt;div style=&quot;&quot;&gt;&lt;font style=&quot;font-size: 30px;&quot;&gt;*収支報告&lt;/font&gt;&lt;/div&gt;" style="rounded=0;whiteSpace=wrap;html=1;align=right;dashed=1;dashPattern=8 8;verticalAlign=bottom;" parent="cFaB45KztUIKXS-_cTrr-14" vertex="1">
          <mxGeometry x="73" y="868" width="230" height="46" as="geometry" />
        </mxCell>
        <mxCell id="9JbMDj_ZPigItXiSbsYy-20" value="&lt;div style=&quot;&quot;&gt;&lt;span style=&quot;background-color: initial;&quot;&gt;&lt;font style=&quot;font-size: 30px;&quot;&gt;思想団体A&lt;/font&gt;&lt;/span&gt;&lt;/div&gt;" style="rounded=0;whiteSpace=wrap;html=1;align=left;fillColor=#CCCCCC;" parent="cFaB45KztUIKXS-_cTrr-14" vertex="1">
          <mxGeometry x="371" y="1217" width="220" height="48" as="geometry" />
        </mxCell>
        <mxCell id="9JbMDj_ZPigItXiSbsYy-21" value="&lt;div style=&quot;font-size: 30px;&quot;&gt;&lt;span style=&quot;background-color: initial;&quot;&gt;*氏名・&lt;/span&gt;&lt;span style=&quot;background-color: initial;&quot;&gt;団体名&lt;/span&gt;&lt;/div&gt;" style="rounded=0;whiteSpace=wrap;html=1;align=right;dashed=1;dashPattern=8 8;verticalAlign=bottom;" parent="cFaB45KztUIKXS-_cTrr-14" vertex="1">
          <mxGeometry x="70" y="1217" width="230" height="48" as="geometry" />
        </mxCell>
        <mxCell id="9JbMDj_ZPigItXiSbsYy-22" value="&lt;font style=&quot;font-size: 30px;&quot;&gt;書証タイプ&lt;/font&gt;" style="rounded=0;whiteSpace=wrap;html=1;align=right;dashed=1;dashPattern=8 8;verticalAlign=bottom;" parent="cFaB45KztUIKXS-_cTrr-14" vertex="1">
          <mxGeometry x="51" y="148" width="230" height="46" as="geometry" />
        </mxCell>
        <mxCell id="9JbMDj_ZPigItXiSbsYy-23" value="&lt;div style=&quot;&quot;&gt;&lt;font style=&quot;font-size: 30px;&quot;&gt;▼ 口座振込&lt;/font&gt;&lt;/div&gt;" style="rounded=0;whiteSpace=wrap;html=1;align=left;fillColor=#CCCCCC;" parent="cFaB45KztUIKXS-_cTrr-14" vertex="1">
          <mxGeometry x="336" y="151" width="220" height="48" as="geometry" />
        </mxCell>
        <mxCell id="9JbMDj_ZPigItXiSbsYy-24" value="&lt;div style=&quot;&quot;&gt;&lt;span style=&quot;background-color: initial;&quot;&gt;&lt;font style=&quot;font-size: 30px;&quot;&gt;収支 花子&lt;/font&gt;&lt;/span&gt;&lt;/div&gt;" style="rounded=0;whiteSpace=wrap;html=1;align=left;fillColor=#CCCCCC;" parent="cFaB45KztUIKXS-_cTrr-14" vertex="1">
          <mxGeometry x="369" y="1292" width="220" height="48" as="geometry" />
        </mxCell>
        <mxCell id="9JbMDj_ZPigItXiSbsYy-25" value="&lt;div style=&quot;&quot;&gt;&lt;span style=&quot;background-color: initial;&quot;&gt;&lt;font style=&quot;font-size: 30px;&quot;&gt;*代表者氏名&lt;/font&gt;&lt;/span&gt;&lt;/div&gt;" style="rounded=0;whiteSpace=wrap;html=1;align=right;dashed=1;dashPattern=8 8;verticalAlign=bottom;" parent="cFaB45KztUIKXS-_cTrr-14" vertex="1">
          <mxGeometry x="70" y="1293" width="230" height="48" as="geometry" />
        </mxCell>
        <mxCell id="9JbMDj_ZPigItXiSbsYy-26" value="&lt;div style=&quot;&quot;&gt;&lt;span style=&quot;background-color: initial;&quot;&gt;&lt;font style=&quot;font-size: 30px;&quot;&gt;東京都千代田区霞が関&lt;/font&gt;&lt;/span&gt;&lt;/div&gt;" style="rounded=0;whiteSpace=wrap;html=1;align=left;verticalAlign=top;fillColor=#CCCCCC;" parent="cFaB45KztUIKXS-_cTrr-14" vertex="1">
          <mxGeometry x="367" y="1367" width="343" height="144" as="geometry" />
        </mxCell>
        <mxCell id="9JbMDj_ZPigItXiSbsYy-27" value="&lt;div style=&quot;&quot;&gt;&lt;font style=&quot;font-size: 30px;&quot;&gt;*代表者住所&lt;/font&gt;&lt;/div&gt;" style="rounded=0;whiteSpace=wrap;html=1;align=right;dashed=1;dashPattern=8 8;verticalAlign=bottom;" parent="cFaB45KztUIKXS-_cTrr-14" vertex="1">
          <mxGeometry x="70" y="1364" width="230" height="48" as="geometry" />
        </mxCell>
        <mxCell id="9JbMDj_ZPigItXiSbsYy-28" value="&lt;font style=&quot;font-size: 84px;&quot;&gt;○&lt;/font&gt;" style="text;html=1;strokeColor=none;fillColor=none;align=center;verticalAlign=middle;whiteSpace=wrap;rounded=0;fontSize=60;" parent="cFaB45KztUIKXS-_cTrr-14" vertex="1">
          <mxGeometry x="370" y="877" width="60" height="30" as="geometry" />
        </mxCell>
        <mxCell id="9JbMDj_ZPigItXiSbsYy-29" value="&lt;font style=&quot;font-size: 48px;&quot;&gt;●&lt;/font&gt;" style="text;html=1;strokeColor=none;fillColor=none;align=center;verticalAlign=middle;whiteSpace=wrap;rounded=0;fontSize=48;" parent="cFaB45KztUIKXS-_cTrr-14" vertex="1">
          <mxGeometry x="370" y="879" width="60" height="30" as="geometry" />
        </mxCell>
        <mxCell id="9JbMDj_ZPigItXiSbsYy-30" value="&lt;font style=&quot;font-size: 30px;&quot;&gt;報告対象&lt;/font&gt;" style="text;html=1;strokeColor=none;fillColor=none;align=left;verticalAlign=middle;whiteSpace=wrap;rounded=0;" parent="cFaB45KztUIKXS-_cTrr-14" vertex="1">
          <mxGeometry x="425" y="866" width="275" height="60" as="geometry" />
        </mxCell>
        <mxCell id="9JbMDj_ZPigItXiSbsYy-31" value="&lt;font style=&quot;font-size: 84px;&quot;&gt;○&lt;/font&gt;" style="text;html=1;strokeColor=none;fillColor=none;align=center;verticalAlign=middle;whiteSpace=wrap;rounded=0;fontSize=60;" parent="cFaB45KztUIKXS-_cTrr-14" vertex="1">
          <mxGeometry x="560" y="877" width="60" height="30" as="geometry" />
        </mxCell>
        <mxCell id="9JbMDj_ZPigItXiSbsYy-32" value="&lt;font style=&quot;font-size: 30px;&quot;&gt;生活費(報告対象外)&lt;/font&gt;" style="text;html=1;strokeColor=none;fillColor=none;align=left;verticalAlign=middle;whiteSpace=wrap;rounded=0;" parent="cFaB45KztUIKXS-_cTrr-14" vertex="1">
          <mxGeometry x="612" y="867" width="275" height="60" as="geometry" />
        </mxCell>
        <mxCell id="9JbMDj_ZPigItXiSbsYy-33" value="&lt;font style=&quot;font-size: 30px;&quot;&gt;*仕訳項目&lt;/font&gt;" style="rounded=0;whiteSpace=wrap;html=1;align=right;dashed=1;dashPattern=8 8;verticalAlign=bottom;" parent="cFaB45KztUIKXS-_cTrr-14" vertex="1">
          <mxGeometry x="71" y="932" width="230" height="46" as="geometry" />
        </mxCell>
        <mxCell id="9JbMDj_ZPigItXiSbsYy-34" value="&lt;div style=&quot;&quot;&gt;&lt;font style=&quot;font-size: 30px;&quot;&gt;▼ (8)寄付(あっせん)&lt;/font&gt;&lt;/div&gt;" style="rounded=0;whiteSpace=wrap;html=1;align=left;fillColor=#CCCCCC;" parent="cFaB45KztUIKXS-_cTrr-14" vertex="1">
          <mxGeometry x="373" y="938" width="347" height="48" as="geometry" />
        </mxCell>
        <mxCell id="9JbMDj_ZPigItXiSbsYy-35" value="&lt;div style=&quot;&quot;&gt;&lt;font style=&quot;font-size: 30px;&quot;&gt;▼ 3.政治団体&lt;/font&gt;&lt;/div&gt;" style="rounded=0;whiteSpace=wrap;html=1;align=left;fillColor=#CCCCCC;" parent="cFaB45KztUIKXS-_cTrr-14" vertex="1">
          <mxGeometry x="768" y="938" width="346" height="48" as="geometry" />
        </mxCell>
        <mxCell id="9JbMDj_ZPigItXiSbsYy-36" value="&lt;div style=&quot;&quot;&gt;&lt;span style=&quot;background-color: initial;&quot;&gt;&lt;font style=&quot;font-size: 30px;&quot;&gt;2022-12-01&lt;/font&gt;&lt;/span&gt;&lt;/div&gt;" style="rounded=0;whiteSpace=wrap;html=1;align=left;fillColor=#CCCCCC;" parent="cFaB45KztUIKXS-_cTrr-14" vertex="1">
          <mxGeometry x="371" y="1077" width="220" height="41" as="geometry" />
        </mxCell>
        <mxCell id="9JbMDj_ZPigItXiSbsYy-37" value="&lt;div style=&quot;&quot;&gt;&lt;font style=&quot;font-size: 30px;&quot;&gt;*発生年月日&lt;/font&gt;&lt;/div&gt;" style="rounded=0;whiteSpace=wrap;html=1;align=right;dashed=1;dashPattern=8 8;verticalAlign=bottom;" parent="cFaB45KztUIKXS-_cTrr-14" vertex="1">
          <mxGeometry x="68" y="1074" width="230" height="48" as="geometry" />
        </mxCell>
        <mxCell id="9JbMDj_ZPigItXiSbsYy-38" value="&lt;div style=&quot;&quot;&gt;&lt;br&gt;&lt;/div&gt;" style="rounded=0;whiteSpace=wrap;html=1;align=left;verticalAlign=top;fillColor=#CCCCCC;" parent="cFaB45KztUIKXS-_cTrr-14" vertex="1">
          <mxGeometry x="370" y="1531" width="340" height="48" as="geometry" />
        </mxCell>
        <mxCell id="9JbMDj_ZPigItXiSbsYy-39" value="&lt;font style=&quot;font-size: 30px;&quot;&gt;*備考&lt;/font&gt;" style="rounded=0;whiteSpace=wrap;html=1;align=right;dashed=1;dashPattern=8 8;verticalAlign=bottom;" parent="cFaB45KztUIKXS-_cTrr-14" vertex="1">
          <mxGeometry x="70" y="1528" width="230" height="48" as="geometry" />
        </mxCell>
        <mxCell id="9JbMDj_ZPigItXiSbsYy-40" value="&lt;font style=&quot;font-size: 30px;&quot;&gt;☑遺贈&lt;/font&gt;" style="text;html=1;strokeColor=none;fillColor=#CCCCCC;align=left;verticalAlign=middle;whiteSpace=wrap;rounded=0;" parent="cFaB45KztUIKXS-_cTrr-14" vertex="1">
          <mxGeometry x="738" y="1545" width="180" height="30" as="geometry" />
        </mxCell>
        <mxCell id="9JbMDj_ZPigItXiSbsYy-41" value="&lt;div style=&quot;&quot;&gt;&lt;span style=&quot;font-size: 30px;&quot;&gt;*集めた期間&lt;/span&gt;&lt;/div&gt;" style="rounded=0;whiteSpace=wrap;html=1;align=right;dashed=1;dashPattern=8 8;verticalAlign=bottom;" parent="cFaB45KztUIKXS-_cTrr-14" vertex="1">
          <mxGeometry x="64" y="1144" width="230" height="48" as="geometry" />
        </mxCell>
        <mxCell id="9JbMDj_ZPigItXiSbsYy-42" value="&lt;div style=&quot;&quot;&gt;&lt;span style=&quot;background-color: initial;&quot;&gt;&lt;font style=&quot;font-size: 30px;&quot;&gt;2012-10-01&lt;/font&gt;&lt;/span&gt;&lt;/div&gt;" style="rounded=0;whiteSpace=wrap;html=1;align=left;fillColor=#CCCCCC;" parent="cFaB45KztUIKXS-_cTrr-14" vertex="1">
          <mxGeometry x="371" y="1147" width="220" height="48" as="geometry" />
        </mxCell>
        <mxCell id="9JbMDj_ZPigItXiSbsYy-43" value="&lt;div style=&quot;&quot;&gt;&lt;span style=&quot;background-color: initial;&quot;&gt;&lt;font style=&quot;font-size: 30px;&quot;&gt;2012-11-15&lt;/font&gt;&lt;/span&gt;&lt;/div&gt;" style="rounded=0;whiteSpace=wrap;html=1;align=left;fillColor=#CCCCCC;" parent="cFaB45KztUIKXS-_cTrr-14" vertex="1">
          <mxGeometry x="761" y="1147" width="220" height="48" as="geometry" />
        </mxCell>
        <mxCell id="9JbMDj_ZPigItXiSbsYy-44" value="&lt;span style=&quot;font-size: 24px;&quot;&gt;Calendar&lt;/span&gt;" style="rounded=1;whiteSpace=wrap;html=1;fillColor=#CCCCCC;" parent="cFaB45KztUIKXS-_cTrr-14" vertex="1">
          <mxGeometry x="604" y="1146" width="120" height="48" as="geometry" />
        </mxCell>
        <mxCell id="9JbMDj_ZPigItXiSbsYy-45" value="&lt;span style=&quot;font-size: 24px;&quot;&gt;Calendar&lt;/span&gt;" style="rounded=1;whiteSpace=wrap;html=1;fillColor=#CCCCCC;" parent="cFaB45KztUIKXS-_cTrr-14" vertex="1">
          <mxGeometry x="1001" y="1150" width="120" height="48" as="geometry" />
        </mxCell>
        <mxCell id="9JbMDj_ZPigItXiSbsYy-46" value="&lt;font style=&quot;font-size: 30px;&quot;&gt;*税額控除&lt;/font&gt;" style="rounded=0;whiteSpace=wrap;html=1;align=right;dashed=1;dashPattern=8 8;verticalAlign=bottom;" parent="cFaB45KztUIKXS-_cTrr-14" vertex="1">
          <mxGeometry x="71" y="1598" width="230" height="46" as="geometry" />
        </mxCell>
        <mxCell id="9JbMDj_ZPigItXiSbsYy-47" value="&lt;font style=&quot;font-size: 30px;&quot;&gt;☑必要&lt;/font&gt;" style="text;html=1;strokeColor=none;fillColor=none;align=left;verticalAlign=middle;whiteSpace=wrap;rounded=0;" parent="cFaB45KztUIKXS-_cTrr-14" vertex="1">
          <mxGeometry x="368" y="1613" width="180" height="30" as="geometry" />
        </mxCell>
        <mxCell id="9JbMDj_ZPigItXiSbsYy-48" value="&lt;span style=&quot;font-size: 30px;&quot;&gt;報告除外で処理されていますが、××という条文上の理由で報告するのが適当と思われます。&lt;/span&gt;" style="rounded=0;whiteSpace=wrap;html=1;align=left;verticalAlign=top;fillColor=#FFFFFF;" parent="cFaB45KztUIKXS-_cTrr-14" vertex="1">
          <mxGeometry x="352" y="1768" width="748" height="144" as="geometry" />
        </mxCell>
        <mxCell id="9JbMDj_ZPigItXiSbsYy-50" value="&lt;span style=&quot;font-size: 30px;&quot;&gt;××信用金庫&lt;/span&gt;" style="rounded=0;whiteSpace=wrap;html=1;align=left;fillColor=#CCCCCC;" parent="cFaB45KztUIKXS-_cTrr-14" vertex="1">
          <mxGeometry x="597" y="150" width="493" height="48" as="geometry" />
        </mxCell>
        <mxCell id="9JbMDj_ZPigItXiSbsYy-51" value="&lt;font style=&quot;font-size: 84px;&quot;&gt;○&lt;/font&gt;" style="text;html=1;strokeColor=none;fillColor=none;align=center;verticalAlign=middle;whiteSpace=wrap;rounded=0;fontSize=60;" parent="cFaB45KztUIKXS-_cTrr-14" vertex="1">
          <mxGeometry x="873" y="877" width="60" height="30" as="geometry" />
        </mxCell>
        <mxCell id="9JbMDj_ZPigItXiSbsYy-52" value="&lt;font style=&quot;font-size: 30px;&quot;&gt;政治活動報告対象外(廃止予定)&lt;/font&gt;" style="text;html=1;strokeColor=none;fillColor=none;align=left;verticalAlign=middle;whiteSpace=wrap;rounded=0;" parent="cFaB45KztUIKXS-_cTrr-14" vertex="1">
          <mxGeometry x="929" y="867" width="421" height="60" as="geometry" />
        </mxCell>
        <mxCell id="9JbMDj_ZPigItXiSbsYy-53" value="&lt;font style=&quot;font-size: 30px;&quot;&gt;*意見付記&lt;/font&gt;" style="rounded=0;whiteSpace=wrap;html=1;align=right;dashed=1;dashPattern=8 8;verticalAlign=bottom;" parent="cFaB45KztUIKXS-_cTrr-14" vertex="1">
          <mxGeometry x="71" y="1768" width="230" height="46" as="geometry" />
        </mxCell>
        <mxCell id="9JbMDj_ZPigItXiSbsYy-54" value="&lt;font style=&quot;font-size: 30px;&quot;&gt;*処理区分&lt;/font&gt;" style="rounded=0;whiteSpace=wrap;html=1;align=right;dashed=1;dashPattern=8 8;verticalAlign=bottom;" parent="cFaB45KztUIKXS-_cTrr-14" vertex="1">
          <mxGeometry x="65" y="1670" width="230" height="46" as="geometry" />
        </mxCell>
        <mxCell id="9JbMDj_ZPigItXiSbsYy-55" value="&lt;font style=&quot;font-size: 30px;&quot;&gt;☑前例と異なる処理&lt;/font&gt;" style="text;html=1;strokeColor=none;fillColor=none;align=left;verticalAlign=middle;whiteSpace=wrap;rounded=0;" parent="cFaB45KztUIKXS-_cTrr-14" vertex="1">
          <mxGeometry x="362" y="1683" width="408" height="30" as="geometry" />
        </mxCell>
        <mxCell id="9JbMDj_ZPigItXiSbsYy-56" value="&lt;span style=&quot;font-size: 30px;&quot;&gt;保全された書証&lt;/span&gt;" style="rounded=1;whiteSpace=wrap;html=1;" parent="cFaB45KztUIKXS-_cTrr-14" vertex="1">
          <mxGeometry x="706" y="1673" width="264" height="48" as="geometry" />
        </mxCell>
        <mxCell id="9JbMDj_ZPigItXiSbsYy-59" value="&lt;div style=&quot;&quot;&gt;&lt;span style=&quot;font-size: 30px;&quot;&gt;12345-4-33&lt;/span&gt;&lt;/div&gt;" style="rounded=0;whiteSpace=wrap;html=1;align=left;fillColor=#CCCCCC;" parent="cFaB45KztUIKXS-_cTrr-14" vertex="1">
          <mxGeometry x="337" y="87" width="513" height="41" as="geometry" />
        </mxCell>
        <mxCell id="9JbMDj_ZPigItXiSbsYy-60" value="&lt;span style=&quot;font-size: 30px;&quot;&gt;対象項目&lt;/span&gt;" style="rounded=0;whiteSpace=wrap;html=1;align=right;dashed=1;dashPattern=8 8;verticalAlign=bottom;" parent="cFaB45KztUIKXS-_cTrr-14" vertex="1">
          <mxGeometry x="46" y="214" width="230" height="46" as="geometry" />
        </mxCell>
        <mxCell id="9JbMDj_ZPigItXiSbsYy-61" value="&lt;div style=&quot;&quot;&gt;&lt;font style=&quot;font-size: 30px;&quot;&gt;▼ 2行目&lt;/font&gt;&lt;/div&gt;" style="rounded=0;whiteSpace=wrap;html=1;align=left;fillColor=#CCCCCC;" parent="cFaB45KztUIKXS-_cTrr-14" vertex="1">
          <mxGeometry x="331" y="217" width="220" height="48" as="geometry" />
        </mxCell>
        <mxCell id="9JbMDj_ZPigItXiSbsYy-87" value="&lt;font style=&quot;font-size: 30px;&quot;&gt;最新の内容&lt;/font&gt;" style="rounded=0;whiteSpace=wrap;html=1;align=left;dashed=1;dashPattern=8 8;verticalAlign=bottom;" parent="cFaB45KztUIKXS-_cTrr-14" vertex="1">
          <mxGeometry x="373" y="800" width="230" height="46" as="geometry" />
        </mxCell>
        <mxCell id="9JbMDj_ZPigItXiSbsYy-88" value="&lt;div style=&quot;&quot;&gt;&lt;span style=&quot;text-align: center;&quot;&gt;&lt;font style=&quot;font-size: 30px;&quot;&gt;2022-03-06 12:34:56&lt;/font&gt;&lt;/span&gt;&lt;br&gt;&lt;/div&gt;" style="rounded=0;whiteSpace=wrap;html=1;align=left;fillColor=#CCCCCC;" parent="cFaB45KztUIKXS-_cTrr-14" vertex="1">
          <mxGeometry x="627" y="800" width="293" height="41" as="geometry" />
        </mxCell>
        <mxCell id="9JbMDj_ZPigItXiSbsYy-89" value="&lt;div style=&quot;&quot;&gt;&lt;span style=&quot;background-color: initial;&quot;&gt;&lt;font style=&quot;font-size: 30px;&quot;&gt;▼会計責任者&lt;/font&gt;&lt;/span&gt;&lt;/div&gt;" style="rounded=0;whiteSpace=wrap;html=1;align=left;fillColor=#CCCCCC;" parent="cFaB45KztUIKXS-_cTrr-14" vertex="1">
          <mxGeometry x="957" y="802" width="220" height="41" as="geometry" />
        </mxCell>
        <mxCell id="9JbMDj_ZPigItXiSbsYy-90" value="&lt;font style=&quot;font-size: 84px;&quot;&gt;○&lt;/font&gt;" style="text;html=1;strokeColor=none;fillColor=none;align=center;verticalAlign=middle;whiteSpace=wrap;rounded=0;fontSize=60;" parent="cFaB45KztUIKXS-_cTrr-14" vertex="1">
          <mxGeometry x="2353" y="557" width="60" height="30" as="geometry" />
        </mxCell>
        <mxCell id="9JbMDj_ZPigItXiSbsYy-91" value="&lt;font style=&quot;font-size: 84px;&quot;&gt;○&lt;/font&gt;" style="text;html=1;strokeColor=none;fillColor=none;align=center;verticalAlign=middle;whiteSpace=wrap;rounded=0;fontSize=60;" parent="cFaB45KztUIKXS-_cTrr-14" vertex="1">
          <mxGeometry x="2353" y="617" width="60" height="30" as="geometry" />
        </mxCell>
        <mxCell id="9JbMDj_ZPigItXiSbsYy-114" value="&lt;font style=&quot;font-size: 84px;&quot;&gt;○&lt;/font&gt;" style="text;html=1;strokeColor=none;fillColor=none;align=center;verticalAlign=middle;whiteSpace=wrap;rounded=0;fontSize=60;" parent="cFaB45KztUIKXS-_cTrr-14" vertex="1">
          <mxGeometry x="2353" y="677" width="60" height="30" as="geometry" />
        </mxCell>
        <mxCell id="9JbMDj_ZPigItXiSbsYy-115" value="&lt;font style=&quot;font-size: 48px;&quot;&gt;●&lt;/font&gt;" style="text;html=1;strokeColor=none;fillColor=none;align=center;verticalAlign=middle;whiteSpace=wrap;rounded=0;fontSize=48;" parent="cFaB45KztUIKXS-_cTrr-14" vertex="1">
          <mxGeometry x="2353" y="619" width="60" height="30" as="geometry" />
        </mxCell>
        <mxCell id="9JbMDj_ZPigItXiSbsYy-119" value="&lt;div style=&quot;&quot;&gt;&lt;font style=&quot;font-size: 30px;&quot;&gt;スクロール&lt;/font&gt;&lt;/div&gt;" style="rounded=0;whiteSpace=wrap;html=1;align=left;verticalAlign=top;fillColor=#FFFFCC;" parent="cFaB45KztUIKXS-_cTrr-14" vertex="1">
          <mxGeometry x="50" y="718" width="1500" height="48" as="geometry" />
        </mxCell>
        <mxCell id="9JbMDj_ZPigItXiSbsYy-120" value="&lt;div style=&quot;&quot;&gt;&lt;br&gt;&lt;/div&gt;" style="rounded=0;whiteSpace=wrap;html=1;align=left;verticalAlign=top;fillColor=#FFFF66;" parent="cFaB45KztUIKXS-_cTrr-14" vertex="1">
          <mxGeometry x="250" y="727" width="290" height="29" as="geometry" />
        </mxCell>
        <mxCell id="9JbMDj_ZPigItXiSbsYy-63" value="&lt;div style=&quot;&quot;&gt;&lt;span style=&quot;background-color: initial;&quot;&gt;&lt;font style=&quot;font-size: 30px;&quot;&gt;123,456&lt;/font&gt;&lt;/span&gt;&lt;/div&gt;" style="rounded=0;whiteSpace=wrap;html=1;align=right;fillColor=#CCCCCC;" parent="cFaB45KztUIKXS-_cTrr-14" vertex="1">
          <mxGeometry x="1511" y="1007" width="220" height="48" as="geometry" />
        </mxCell>
        <mxCell id="9JbMDj_ZPigItXiSbsYy-64" value="&lt;div style=&quot;&quot;&gt;&lt;span style=&quot;background-color: initial;&quot;&gt;&lt;font style=&quot;font-size: 30px;&quot;&gt;思想団体A&lt;/font&gt;&lt;/span&gt;&lt;/div&gt;" style="rounded=0;whiteSpace=wrap;html=1;align=left;fillColor=#CCCCCC;" parent="cFaB45KztUIKXS-_cTrr-14" vertex="1">
          <mxGeometry x="1511" y="1217" width="220" height="48" as="geometry" />
        </mxCell>
        <mxCell id="9JbMDj_ZPigItXiSbsYy-65" value="&lt;div style=&quot;&quot;&gt;&lt;span style=&quot;background-color: initial;&quot;&gt;&lt;font style=&quot;font-size: 30px;&quot;&gt;収支 花子&lt;/font&gt;&lt;/span&gt;&lt;/div&gt;" style="rounded=0;whiteSpace=wrap;html=1;align=left;fillColor=#CCCCCC;" parent="cFaB45KztUIKXS-_cTrr-14" vertex="1">
          <mxGeometry x="1509" y="1292" width="220" height="48" as="geometry" />
        </mxCell>
        <mxCell id="9JbMDj_ZPigItXiSbsYy-66" value="&lt;div style=&quot;&quot;&gt;&lt;span style=&quot;background-color: initial;&quot;&gt;&lt;font style=&quot;font-size: 30px;&quot;&gt;東京都千代田区霞が関&lt;/font&gt;&lt;/span&gt;&lt;/div&gt;" style="rounded=0;whiteSpace=wrap;html=1;align=left;verticalAlign=top;fillColor=#CCCCCC;" parent="cFaB45KztUIKXS-_cTrr-14" vertex="1">
          <mxGeometry x="1507" y="1367" width="343" height="144" as="geometry" />
        </mxCell>
        <mxCell id="9JbMDj_ZPigItXiSbsYy-67" value="&lt;font style=&quot;font-size: 84px;&quot;&gt;○&lt;/font&gt;" style="text;html=1;strokeColor=none;fillColor=none;align=center;verticalAlign=middle;whiteSpace=wrap;rounded=0;fontSize=60;" parent="cFaB45KztUIKXS-_cTrr-14" vertex="1">
          <mxGeometry x="1510" y="877" width="60" height="30" as="geometry" />
        </mxCell>
        <mxCell id="9JbMDj_ZPigItXiSbsYy-68" value="&lt;font style=&quot;font-size: 48px;&quot;&gt;●&lt;/font&gt;" style="text;html=1;strokeColor=none;fillColor=none;align=center;verticalAlign=middle;whiteSpace=wrap;rounded=0;fontSize=48;" parent="cFaB45KztUIKXS-_cTrr-14" vertex="1">
          <mxGeometry x="1510" y="879" width="60" height="30" as="geometry" />
        </mxCell>
        <mxCell id="9JbMDj_ZPigItXiSbsYy-69" value="&lt;font style=&quot;font-size: 30px;&quot;&gt;報告対象&lt;/font&gt;" style="text;html=1;strokeColor=none;fillColor=none;align=left;verticalAlign=middle;whiteSpace=wrap;rounded=0;" parent="cFaB45KztUIKXS-_cTrr-14" vertex="1">
          <mxGeometry x="1565" y="866" width="275" height="60" as="geometry" />
        </mxCell>
        <mxCell id="9JbMDj_ZPigItXiSbsYy-70" value="&lt;font style=&quot;font-size: 84px;&quot;&gt;○&lt;/font&gt;" style="text;html=1;strokeColor=none;fillColor=none;align=center;verticalAlign=middle;whiteSpace=wrap;rounded=0;fontSize=60;" parent="cFaB45KztUIKXS-_cTrr-14" vertex="1">
          <mxGeometry x="1700" y="877" width="60" height="30" as="geometry" />
        </mxCell>
        <mxCell id="9JbMDj_ZPigItXiSbsYy-71" value="&lt;font style=&quot;font-size: 30px;&quot;&gt;生活費(報告対象外)&lt;/font&gt;" style="text;html=1;strokeColor=none;fillColor=none;align=left;verticalAlign=middle;whiteSpace=wrap;rounded=0;" parent="cFaB45KztUIKXS-_cTrr-14" vertex="1">
          <mxGeometry x="1752" y="867" width="275" height="60" as="geometry" />
        </mxCell>
        <mxCell id="9JbMDj_ZPigItXiSbsYy-72" value="&lt;div style=&quot;&quot;&gt;&lt;font style=&quot;font-size: 30px;&quot;&gt;▼ (8)寄付(あっせん)&lt;/font&gt;&lt;/div&gt;" style="rounded=0;whiteSpace=wrap;html=1;align=left;fillColor=#CCCCCC;" parent="cFaB45KztUIKXS-_cTrr-14" vertex="1">
          <mxGeometry x="1513" y="938" width="347" height="48" as="geometry" />
        </mxCell>
        <mxCell id="9JbMDj_ZPigItXiSbsYy-73" value="&lt;div style=&quot;&quot;&gt;&lt;font style=&quot;font-size: 30px;&quot;&gt;▼ 3.政治団体&lt;/font&gt;&lt;/div&gt;" style="rounded=0;whiteSpace=wrap;html=1;align=left;fillColor=#CCCCCC;" parent="cFaB45KztUIKXS-_cTrr-14" vertex="1">
          <mxGeometry x="1908" y="938" width="346" height="48" as="geometry" />
        </mxCell>
        <mxCell id="9JbMDj_ZPigItXiSbsYy-74" value="&lt;div style=&quot;&quot;&gt;&lt;span style=&quot;background-color: initial;&quot;&gt;&lt;font style=&quot;font-size: 30px;&quot;&gt;2022-12-01&lt;/font&gt;&lt;/span&gt;&lt;/div&gt;" style="rounded=0;whiteSpace=wrap;html=1;align=left;fillColor=#CCCCCC;" parent="cFaB45KztUIKXS-_cTrr-14" vertex="1">
          <mxGeometry x="1511" y="1077" width="220" height="41" as="geometry" />
        </mxCell>
        <mxCell id="9JbMDj_ZPigItXiSbsYy-75" value="&lt;div style=&quot;&quot;&gt;&lt;br&gt;&lt;/div&gt;" style="rounded=0;whiteSpace=wrap;html=1;align=left;verticalAlign=top;fillColor=#CCCCCC;" parent="cFaB45KztUIKXS-_cTrr-14" vertex="1">
          <mxGeometry x="1510" y="1531" width="340" height="48" as="geometry" />
        </mxCell>
        <mxCell id="9JbMDj_ZPigItXiSbsYy-76" value="&lt;font style=&quot;font-size: 30px;&quot;&gt;☑遺贈&lt;/font&gt;" style="text;html=1;strokeColor=none;fillColor=#CCCCCC;align=left;verticalAlign=middle;whiteSpace=wrap;rounded=0;" parent="cFaB45KztUIKXS-_cTrr-14" vertex="1">
          <mxGeometry x="1878" y="1545" width="180" height="30" as="geometry" />
        </mxCell>
        <mxCell id="9JbMDj_ZPigItXiSbsYy-77" value="&lt;div style=&quot;&quot;&gt;&lt;span style=&quot;background-color: initial;&quot;&gt;&lt;font style=&quot;font-size: 30px;&quot;&gt;2012-10-01&lt;/font&gt;&lt;/span&gt;&lt;/div&gt;" style="rounded=0;whiteSpace=wrap;html=1;align=left;fillColor=#CCCCCC;" parent="cFaB45KztUIKXS-_cTrr-14" vertex="1">
          <mxGeometry x="1511" y="1147" width="220" height="48" as="geometry" />
        </mxCell>
        <mxCell id="9JbMDj_ZPigItXiSbsYy-78" value="&lt;div style=&quot;&quot;&gt;&lt;span style=&quot;background-color: initial;&quot;&gt;&lt;font style=&quot;font-size: 30px;&quot;&gt;2012-11-15&lt;/font&gt;&lt;/span&gt;&lt;/div&gt;" style="rounded=0;whiteSpace=wrap;html=1;align=left;fillColor=#CCCCCC;" parent="cFaB45KztUIKXS-_cTrr-14" vertex="1">
          <mxGeometry x="1901" y="1147" width="220" height="48" as="geometry" />
        </mxCell>
        <mxCell id="9JbMDj_ZPigItXiSbsYy-79" value="&lt;span style=&quot;font-size: 24px;&quot;&gt;Calendar&lt;/span&gt;" style="rounded=1;whiteSpace=wrap;html=1;fillColor=#CCCCCC;" parent="cFaB45KztUIKXS-_cTrr-14" vertex="1">
          <mxGeometry x="1744" y="1146" width="120" height="48" as="geometry" />
        </mxCell>
        <mxCell id="9JbMDj_ZPigItXiSbsYy-80" value="&lt;span style=&quot;font-size: 24px;&quot;&gt;Calendar&lt;/span&gt;" style="rounded=1;whiteSpace=wrap;html=1;fillColor=#CCCCCC;" parent="cFaB45KztUIKXS-_cTrr-14" vertex="1">
          <mxGeometry x="2141" y="1150" width="120" height="48" as="geometry" />
        </mxCell>
        <mxCell id="9JbMDj_ZPigItXiSbsYy-81" value="&lt;font style=&quot;font-size: 30px;&quot;&gt;☑必要&lt;/font&gt;" style="text;html=1;strokeColor=none;fillColor=none;align=left;verticalAlign=middle;whiteSpace=wrap;rounded=0;" parent="cFaB45KztUIKXS-_cTrr-14" vertex="1">
          <mxGeometry x="1508" y="1613" width="180" height="30" as="geometry" />
        </mxCell>
        <mxCell id="9JbMDj_ZPigItXiSbsYy-82" value="&lt;font style=&quot;font-size: 84px;&quot;&gt;○&lt;/font&gt;" style="text;html=1;strokeColor=none;fillColor=none;align=center;verticalAlign=middle;whiteSpace=wrap;rounded=0;fontSize=60;" parent="cFaB45KztUIKXS-_cTrr-14" vertex="1">
          <mxGeometry x="2013" y="877" width="60" height="30" as="geometry" />
        </mxCell>
        <mxCell id="9JbMDj_ZPigItXiSbsYy-83" value="&lt;font style=&quot;font-size: 30px;&quot;&gt;政治活動報告対象外(廃止予定)&lt;/font&gt;" style="text;html=1;strokeColor=none;fillColor=none;align=left;verticalAlign=middle;whiteSpace=wrap;rounded=0;" parent="cFaB45KztUIKXS-_cTrr-14" vertex="1">
          <mxGeometry x="2069" y="867" width="421" height="60" as="geometry" />
        </mxCell>
        <mxCell id="9JbMDj_ZPigItXiSbsYy-84" value="&lt;font style=&quot;font-size: 30px;&quot;&gt;☑前例と異なる処理&lt;/font&gt;" style="text;html=1;strokeColor=none;fillColor=none;align=left;verticalAlign=middle;whiteSpace=wrap;rounded=0;" parent="cFaB45KztUIKXS-_cTrr-14" vertex="1">
          <mxGeometry x="1502" y="1683" width="408" height="30" as="geometry" />
        </mxCell>
        <mxCell id="9JbMDj_ZPigItXiSbsYy-85" value="&lt;span style=&quot;font-size: 30px;&quot;&gt;保全された書証&lt;/span&gt;" style="rounded=1;whiteSpace=wrap;html=1;" parent="cFaB45KztUIKXS-_cTrr-14" vertex="1">
          <mxGeometry x="1846" y="1673" width="264" height="48" as="geometry" />
        </mxCell>
        <mxCell id="9JbMDj_ZPigItXiSbsYy-86" value="" style="rounded=0;whiteSpace=wrap;html=1;align=left;verticalAlign=top;fillColor=#FFFFFF;" parent="cFaB45KztUIKXS-_cTrr-14" vertex="1">
          <mxGeometry x="1492" y="1768" width="748" height="144" as="geometry" />
        </mxCell>
        <mxCell id="9JbMDj_ZPigItXiSbsYy-116" value="&lt;font style=&quot;font-size: 30px;&quot;&gt;比較している内容&lt;/font&gt;" style="rounded=0;whiteSpace=wrap;html=1;align=left;dashed=1;dashPattern=8 8;verticalAlign=bottom;" parent="cFaB45KztUIKXS-_cTrr-14" vertex="1">
          <mxGeometry x="1513" y="800" width="257" height="46" as="geometry" />
        </mxCell>
        <mxCell id="9JbMDj_ZPigItXiSbsYy-117" value="&lt;div style=&quot;&quot;&gt;&lt;span style=&quot;text-align: center;&quot;&gt;&lt;font style=&quot;font-size: 30px;&quot;&gt;2022-03-06 12:34:56&lt;/font&gt;&lt;/span&gt;&lt;br&gt;&lt;/div&gt;" style="rounded=0;whiteSpace=wrap;html=1;align=left;fillColor=#CCCCCC;" parent="cFaB45KztUIKXS-_cTrr-14" vertex="1">
          <mxGeometry x="1790" y="800" width="293" height="41" as="geometry" />
        </mxCell>
        <mxCell id="9JbMDj_ZPigItXiSbsYy-118" value="&lt;div style=&quot;&quot;&gt;&lt;span style=&quot;background-color: initial;&quot;&gt;&lt;font style=&quot;font-size: 30px;&quot;&gt;▼代表者&lt;/font&gt;&lt;/span&gt;&lt;/div&gt;" style="rounded=0;whiteSpace=wrap;html=1;align=left;fillColor=#CCCCCC;" parent="cFaB45KztUIKXS-_cTrr-14" vertex="1">
          <mxGeometry x="2117" y="802" width="220" height="41" as="geometry" />
        </mxCell>
        <mxCell id="TxczZguwrJ-QLl2Ewce2-48" value="" style="childLayout=tableLayout;recursiveResize=0;shadow=0;fillColor=none;" parent="cFaB45KztUIKXS-_cTrr-14" vertex="1">
          <mxGeometry x="50" y="376" width="2461" height="346" as="geometry" />
        </mxCell>
        <mxCell id="TxczZguwrJ-QLl2Ewce2-49" value="" style="shape=tableRow;horizontal=0;startSize=0;swimlaneHead=0;swimlaneBody=0;top=0;left=0;bottom=0;right=0;dropTarget=0;collapsible=0;recursiveResize=0;expand=0;fontStyle=0;fillColor=none;strokeColor=inherit;" parent="TxczZguwrJ-QLl2Ewce2-48" vertex="1">
          <mxGeometry width="2461" height="58" as="geometry" />
        </mxCell>
        <mxCell id="TxczZguwrJ-QLl2Ewce2-64" value="&lt;font style=&quot;font-size: 30px;&quot;&gt;更新時間&lt;/font&gt;" style="connectable=0;recursiveResize=0;strokeColor=inherit;fillColor=none;align=center;whiteSpace=wrap;html=1;" parent="TxczZguwrJ-QLl2Ewce2-49" vertex="1">
          <mxGeometry width="245" height="58" as="geometry">
            <mxRectangle width="245" height="58" as="alternateBounds" />
          </mxGeometry>
        </mxCell>
        <mxCell id="9JbMDj_ZPigItXiSbsYy-0" value="&lt;font style=&quot;font-size: 30px;&quot;&gt;作業者&lt;/font&gt;" style="connectable=0;recursiveResize=0;strokeColor=inherit;fillColor=none;align=center;whiteSpace=wrap;html=1;" parent="TxczZguwrJ-QLl2Ewce2-49" vertex="1">
          <mxGeometry x="245" width="245" height="58" as="geometry">
            <mxRectangle width="245" height="58" as="alternateBounds" />
          </mxGeometry>
        </mxCell>
        <mxCell id="TxczZguwrJ-QLl2Ewce2-61" value="&lt;font style=&quot;font-size: 30px;&quot;&gt;動作内容&lt;/font&gt;" style="connectable=0;recursiveResize=0;strokeColor=inherit;fillColor=none;align=center;whiteSpace=wrap;html=1;" parent="TxczZguwrJ-QLl2Ewce2-49" vertex="1">
          <mxGeometry x="490" width="245" height="58" as="geometry">
            <mxRectangle width="245" height="58" as="alternateBounds" />
          </mxGeometry>
        </mxCell>
        <mxCell id="TxczZguwrJ-QLl2Ewce2-50" value="&lt;span style=&quot;font-size: 30px;&quot;&gt;掲載内容&lt;/span&gt;" style="connectable=0;recursiveResize=0;strokeColor=inherit;fillColor=none;align=center;whiteSpace=wrap;html=1;" parent="TxczZguwrJ-QLl2Ewce2-49" vertex="1">
          <mxGeometry x="735" width="205" height="58" as="geometry">
            <mxRectangle width="205" height="58" as="alternateBounds" />
          </mxGeometry>
        </mxCell>
        <mxCell id="9JbMDj_ZPigItXiSbsYy-10" value="&lt;font style=&quot;font-size: 30px;&quot;&gt;摘要&lt;/font&gt;" style="connectable=0;recursiveResize=0;strokeColor=inherit;fillColor=none;align=center;whiteSpace=wrap;html=1;" parent="TxczZguwrJ-QLl2Ewce2-49" vertex="1">
          <mxGeometry x="940" width="390" height="58" as="geometry">
            <mxRectangle width="390" height="58" as="alternateBounds" />
          </mxGeometry>
        </mxCell>
        <mxCell id="l-1sBg6fgttBjZcaECSn-0" value="&lt;font style=&quot;font-size: 30px;&quot;&gt;発生日&lt;/font&gt;" style="connectable=0;recursiveResize=0;strokeColor=inherit;fillColor=none;align=center;whiteSpace=wrap;html=1;" vertex="1" parent="TxczZguwrJ-QLl2Ewce2-49">
          <mxGeometry x="1330" width="178" height="58" as="geometry">
            <mxRectangle width="178" height="58" as="alternateBounds" />
          </mxGeometry>
        </mxCell>
        <mxCell id="9JbMDj_ZPigItXiSbsYy-5" value="&lt;font style=&quot;font-size: 30px;&quot;&gt;金額&lt;/font&gt;" style="connectable=0;recursiveResize=0;strokeColor=inherit;fillColor=none;align=center;whiteSpace=wrap;html=1;" parent="TxczZguwrJ-QLl2Ewce2-49" vertex="1">
          <mxGeometry x="1508" width="178" height="58" as="geometry">
            <mxRectangle width="178" height="58" as="alternateBounds" />
          </mxGeometry>
        </mxCell>
        <mxCell id="TxczZguwrJ-QLl2Ewce2-51" value="&lt;font style=&quot;font-size: 30px;&quot;&gt;仕訳&lt;/font&gt;" style="connectable=0;recursiveResize=0;strokeColor=inherit;fillColor=default;align=center;whiteSpace=wrap;html=1;" parent="TxczZguwrJ-QLl2Ewce2-49" vertex="1">
          <mxGeometry x="1686" width="284" height="58" as="geometry">
            <mxRectangle width="284" height="58" as="alternateBounds" />
          </mxGeometry>
        </mxCell>
        <mxCell id="TxczZguwrJ-QLl2Ewce2-52" value="&lt;font style=&quot;font-size: 30px;&quot;&gt;付記&lt;/font&gt;" style="connectable=0;recursiveResize=0;strokeColor=inherit;fillColor=none;align=center;whiteSpace=wrap;html=1;" parent="TxczZguwrJ-QLl2Ewce2-49" vertex="1">
          <mxGeometry x="1970" width="246" height="58" as="geometry">
            <mxRectangle width="246" height="58" as="alternateBounds" />
          </mxGeometry>
        </mxCell>
        <mxCell id="TxczZguwrJ-QLl2Ewce2-73" value="&lt;font style=&quot;font-size: 30px;&quot;&gt;参照&lt;/font&gt;" style="connectable=0;recursiveResize=0;strokeColor=inherit;fillColor=none;align=center;whiteSpace=wrap;html=1;" parent="TxczZguwrJ-QLl2Ewce2-49" vertex="1">
          <mxGeometry x="2216" width="245" height="58" as="geometry">
            <mxRectangle width="245" height="58" as="alternateBounds" />
          </mxGeometry>
        </mxCell>
        <mxCell id="TxczZguwrJ-QLl2Ewce2-53" style="shape=tableRow;horizontal=0;startSize=0;swimlaneHead=0;swimlaneBody=0;top=0;left=0;bottom=0;right=0;dropTarget=0;collapsible=0;recursiveResize=0;expand=0;fontStyle=0;fillColor=none;strokeColor=inherit;" parent="TxczZguwrJ-QLl2Ewce2-48" vertex="1">
          <mxGeometry y="58" width="2461" height="56" as="geometry" />
        </mxCell>
        <mxCell id="TxczZguwrJ-QLl2Ewce2-65" value="&lt;font style=&quot;font-size: 24px;&quot;&gt;2022-03-06 12:34:56&lt;/font&gt;" style="connectable=0;recursiveResize=0;strokeColor=inherit;fillColor=none;align=center;whiteSpace=wrap;html=1;" parent="TxczZguwrJ-QLl2Ewce2-53" vertex="1">
          <mxGeometry width="245" height="56" as="geometry">
            <mxRectangle width="245" height="56" as="alternateBounds" />
          </mxGeometry>
        </mxCell>
        <mxCell id="9JbMDj_ZPigItXiSbsYy-1" value="&lt;font style=&quot;font-size: 30px;&quot;&gt;会計責任者&lt;/font&gt;" style="connectable=0;recursiveResize=0;strokeColor=inherit;fillColor=none;align=center;whiteSpace=wrap;html=1;" parent="TxczZguwrJ-QLl2Ewce2-53" vertex="1">
          <mxGeometry x="245" width="245" height="56" as="geometry">
            <mxRectangle width="245" height="56" as="alternateBounds" />
          </mxGeometry>
        </mxCell>
        <mxCell id="TxczZguwrJ-QLl2Ewce2-62" value="&lt;font style=&quot;font-size: 30px;&quot;&gt;意見付記&lt;/font&gt;" style="connectable=0;recursiveResize=0;strokeColor=inherit;fillColor=none;align=center;whiteSpace=wrap;html=1;" parent="TxczZguwrJ-QLl2Ewce2-53" vertex="1">
          <mxGeometry x="490" width="245" height="56" as="geometry">
            <mxRectangle width="245" height="56" as="alternateBounds" />
          </mxGeometry>
        </mxCell>
        <mxCell id="TxczZguwrJ-QLl2Ewce2-54" value="&lt;font style=&quot;font-size: 30px;&quot;&gt;報告対象&lt;/font&gt;" style="connectable=0;recursiveResize=0;strokeColor=inherit;fillColor=none;align=center;whiteSpace=wrap;html=1;" parent="TxczZguwrJ-QLl2Ewce2-53" vertex="1">
          <mxGeometry x="735" width="205" height="56" as="geometry">
            <mxRectangle width="205" height="56" as="alternateBounds" />
          </mxGeometry>
        </mxCell>
        <mxCell id="9JbMDj_ZPigItXiSbsYy-11" value="&lt;span style=&quot;font-size: 30px; text-align: left;&quot;&gt;フリコミ シエンシャハナコ&lt;/span&gt;" style="connectable=0;recursiveResize=0;strokeColor=inherit;fillColor=none;align=center;whiteSpace=wrap;html=1;" parent="TxczZguwrJ-QLl2Ewce2-53" vertex="1">
          <mxGeometry x="940" width="390" height="56" as="geometry">
            <mxRectangle width="390" height="56" as="alternateBounds" />
          </mxGeometry>
        </mxCell>
        <mxCell id="l-1sBg6fgttBjZcaECSn-1" value="&lt;font style=&quot;font-size: 30px;&quot;&gt;2022-12-01&lt;/font&gt;" style="connectable=0;recursiveResize=0;strokeColor=inherit;fillColor=none;align=right;whiteSpace=wrap;html=1;" vertex="1" parent="TxczZguwrJ-QLl2Ewce2-53">
          <mxGeometry x="1330" width="178" height="56" as="geometry">
            <mxRectangle width="178" height="56" as="alternateBounds" />
          </mxGeometry>
        </mxCell>
        <mxCell id="9JbMDj_ZPigItXiSbsYy-6" value="&lt;font style=&quot;font-size: 30px;&quot;&gt;123,456&lt;/font&gt;" style="connectable=0;recursiveResize=0;strokeColor=inherit;fillColor=none;align=right;whiteSpace=wrap;html=1;" parent="TxczZguwrJ-QLl2Ewce2-53" vertex="1">
          <mxGeometry x="1508" width="178" height="56" as="geometry">
            <mxRectangle width="178" height="56" as="alternateBounds" />
          </mxGeometry>
        </mxCell>
        <mxCell id="TxczZguwrJ-QLl2Ewce2-55" value="&lt;font style=&quot;font-size: 30px;&quot;&gt;寄付個人(7-1)&lt;/font&gt;" style="connectable=0;recursiveResize=0;strokeColor=inherit;fillColor=default;align=center;whiteSpace=wrap;html=1;" parent="TxczZguwrJ-QLl2Ewce2-53" vertex="1">
          <mxGeometry x="1686" width="284" height="56" as="geometry">
            <mxRectangle width="284" height="56" as="alternateBounds" />
          </mxGeometry>
        </mxCell>
        <mxCell id="TxczZguwrJ-QLl2Ewce2-56" value="&lt;span style=&quot;font-size: 24px; text-align: left;&quot;&gt;××法の条文…&lt;/span&gt;" style="connectable=0;recursiveResize=0;strokeColor=inherit;fillColor=none;align=center;whiteSpace=wrap;html=1;" parent="TxczZguwrJ-QLl2Ewce2-53" vertex="1">
          <mxGeometry x="1970" width="246" height="56" as="geometry">
            <mxRectangle width="246" height="56" as="alternateBounds" />
          </mxGeometry>
        </mxCell>
        <mxCell id="TxczZguwrJ-QLl2Ewce2-74" value="&lt;font style=&quot;font-size: 30px;&quot;&gt;最新(左)&lt;/font&gt;" style="connectable=0;recursiveResize=0;strokeColor=inherit;fillColor=none;align=center;whiteSpace=wrap;html=1;" parent="TxczZguwrJ-QLl2Ewce2-53" vertex="1">
          <mxGeometry x="2216" width="245" height="56" as="geometry">
            <mxRectangle width="245" height="56" as="alternateBounds" />
          </mxGeometry>
        </mxCell>
        <mxCell id="9JbMDj_ZPigItXiSbsYy-104" style="shape=tableRow;horizontal=0;startSize=0;swimlaneHead=0;swimlaneBody=0;top=0;left=0;bottom=0;right=0;dropTarget=0;collapsible=0;recursiveResize=0;expand=0;fontStyle=0;fillColor=none;strokeColor=inherit;" parent="TxczZguwrJ-QLl2Ewce2-48" vertex="1">
          <mxGeometry y="114" width="2461" height="58" as="geometry" />
        </mxCell>
        <mxCell id="9JbMDj_ZPigItXiSbsYy-105" style="connectable=0;recursiveResize=0;strokeColor=inherit;fillColor=none;align=center;whiteSpace=wrap;html=1;" parent="9JbMDj_ZPigItXiSbsYy-104" vertex="1">
          <mxGeometry width="245" height="58" as="geometry">
            <mxRectangle width="245" height="58" as="alternateBounds" />
          </mxGeometry>
        </mxCell>
        <mxCell id="9JbMDj_ZPigItXiSbsYy-106" style="connectable=0;recursiveResize=0;strokeColor=inherit;fillColor=none;align=center;whiteSpace=wrap;html=1;" parent="9JbMDj_ZPigItXiSbsYy-104" vertex="1">
          <mxGeometry x="245" width="245" height="58" as="geometry">
            <mxRectangle width="245" height="58" as="alternateBounds" />
          </mxGeometry>
        </mxCell>
        <mxCell id="9JbMDj_ZPigItXiSbsYy-107" style="connectable=0;recursiveResize=0;strokeColor=inherit;fillColor=none;align=center;whiteSpace=wrap;html=1;" parent="9JbMDj_ZPigItXiSbsYy-104" vertex="1">
          <mxGeometry x="490" width="245" height="58" as="geometry">
            <mxRectangle width="245" height="58" as="alternateBounds" />
          </mxGeometry>
        </mxCell>
        <mxCell id="9JbMDj_ZPigItXiSbsYy-108" style="connectable=0;recursiveResize=0;strokeColor=inherit;fillColor=none;align=center;whiteSpace=wrap;html=1;" parent="9JbMDj_ZPigItXiSbsYy-104" vertex="1">
          <mxGeometry x="735" width="205" height="58" as="geometry">
            <mxRectangle width="205" height="58" as="alternateBounds" />
          </mxGeometry>
        </mxCell>
        <mxCell id="9JbMDj_ZPigItXiSbsYy-109" style="connectable=0;recursiveResize=0;strokeColor=inherit;fillColor=none;align=left;whiteSpace=wrap;html=1;" parent="9JbMDj_ZPigItXiSbsYy-104" vertex="1">
          <mxGeometry x="940" width="390" height="58" as="geometry">
            <mxRectangle width="390" height="58" as="alternateBounds" />
          </mxGeometry>
        </mxCell>
        <mxCell id="l-1sBg6fgttBjZcaECSn-2" style="connectable=0;recursiveResize=0;strokeColor=inherit;fillColor=none;align=right;whiteSpace=wrap;html=1;" vertex="1" parent="9JbMDj_ZPigItXiSbsYy-104">
          <mxGeometry x="1330" width="178" height="58" as="geometry">
            <mxRectangle width="178" height="58" as="alternateBounds" />
          </mxGeometry>
        </mxCell>
        <mxCell id="9JbMDj_ZPigItXiSbsYy-110" style="connectable=0;recursiveResize=0;strokeColor=inherit;fillColor=none;align=right;whiteSpace=wrap;html=1;" parent="9JbMDj_ZPigItXiSbsYy-104" vertex="1">
          <mxGeometry x="1508" width="178" height="58" as="geometry">
            <mxRectangle width="178" height="58" as="alternateBounds" />
          </mxGeometry>
        </mxCell>
        <mxCell id="9JbMDj_ZPigItXiSbsYy-111" style="connectable=0;recursiveResize=0;strokeColor=inherit;fillColor=default;align=center;whiteSpace=wrap;html=1;" parent="9JbMDj_ZPigItXiSbsYy-104" vertex="1">
          <mxGeometry x="1686" width="284" height="58" as="geometry">
            <mxRectangle width="284" height="58" as="alternateBounds" />
          </mxGeometry>
        </mxCell>
        <mxCell id="9JbMDj_ZPigItXiSbsYy-112" style="connectable=0;recursiveResize=0;strokeColor=inherit;fillColor=none;align=center;whiteSpace=wrap;html=1;" parent="9JbMDj_ZPigItXiSbsYy-104" vertex="1">
          <mxGeometry x="1970" width="246" height="58" as="geometry">
            <mxRectangle width="246" height="58" as="alternateBounds" />
          </mxGeometry>
        </mxCell>
        <mxCell id="9JbMDj_ZPigItXiSbsYy-113" style="connectable=0;recursiveResize=0;strokeColor=inherit;fillColor=none;align=center;whiteSpace=wrap;html=1;" parent="9JbMDj_ZPigItXiSbsYy-104" vertex="1">
          <mxGeometry x="2216" width="245" height="58" as="geometry">
            <mxRectangle width="245" height="58" as="alternateBounds" />
          </mxGeometry>
        </mxCell>
        <mxCell id="TxczZguwrJ-QLl2Ewce2-57" style="shape=tableRow;horizontal=0;startSize=0;swimlaneHead=0;swimlaneBody=0;top=0;left=0;bottom=0;right=0;dropTarget=0;collapsible=0;recursiveResize=0;expand=0;fontStyle=0;fillColor=none;strokeColor=inherit;" parent="TxczZguwrJ-QLl2Ewce2-48" vertex="1">
          <mxGeometry y="172" width="2461" height="58" as="geometry" />
        </mxCell>
        <mxCell id="TxczZguwrJ-QLl2Ewce2-66" value="&lt;font style=&quot;font-size: 24px;&quot;&gt;2022-03-06 12:34:56&lt;/font&gt;" style="connectable=0;recursiveResize=0;strokeColor=inherit;fillColor=none;align=center;whiteSpace=wrap;html=1;" parent="TxczZguwrJ-QLl2Ewce2-57" vertex="1">
          <mxGeometry width="245" height="58" as="geometry">
            <mxRectangle width="245" height="58" as="alternateBounds" />
          </mxGeometry>
        </mxCell>
        <mxCell id="9JbMDj_ZPigItXiSbsYy-2" value="&lt;font style=&quot;font-size: 30px;&quot;&gt;代表者&lt;/font&gt;" style="connectable=0;recursiveResize=0;strokeColor=inherit;fillColor=none;align=center;whiteSpace=wrap;html=1;" parent="TxczZguwrJ-QLl2Ewce2-57" vertex="1">
          <mxGeometry x="245" width="245" height="58" as="geometry">
            <mxRectangle width="245" height="58" as="alternateBounds" />
          </mxGeometry>
        </mxCell>
        <mxCell id="TxczZguwrJ-QLl2Ewce2-63" value="&lt;font style=&quot;font-size: 30px;&quot;&gt;データ編集&lt;/font&gt;" style="connectable=0;recursiveResize=0;strokeColor=inherit;fillColor=none;align=center;whiteSpace=wrap;html=1;" parent="TxczZguwrJ-QLl2Ewce2-57" vertex="1">
          <mxGeometry x="490" width="245" height="58" as="geometry">
            <mxRectangle width="245" height="58" as="alternateBounds" />
          </mxGeometry>
        </mxCell>
        <mxCell id="TxczZguwrJ-QLl2Ewce2-58" value="&lt;font style=&quot;font-size: 30px;&quot;&gt;政治資金&lt;/font&gt;" style="connectable=0;recursiveResize=0;strokeColor=inherit;fillColor=none;align=center;whiteSpace=wrap;html=1;" parent="TxczZguwrJ-QLl2Ewce2-57" vertex="1">
          <mxGeometry x="735" width="205" height="58" as="geometry">
            <mxRectangle width="205" height="58" as="alternateBounds" />
          </mxGeometry>
        </mxCell>
        <mxCell id="9JbMDj_ZPigItXiSbsYy-12" value="&lt;span style=&quot;font-size: 30px;&quot;&gt;地方議員から寄付&lt;/span&gt;" style="connectable=0;recursiveResize=0;strokeColor=inherit;fillColor=none;align=left;whiteSpace=wrap;html=1;" parent="TxczZguwrJ-QLl2Ewce2-57" vertex="1">
          <mxGeometry x="940" width="390" height="58" as="geometry">
            <mxRectangle width="390" height="58" as="alternateBounds" />
          </mxGeometry>
        </mxCell>
        <mxCell id="l-1sBg6fgttBjZcaECSn-3" value="&lt;span style=&quot;font-size: 30px;&quot;&gt;2022-12-01&lt;/span&gt;" style="connectable=0;recursiveResize=0;strokeColor=inherit;fillColor=none;align=right;whiteSpace=wrap;html=1;" vertex="1" parent="TxczZguwrJ-QLl2Ewce2-57">
          <mxGeometry x="1330" width="178" height="58" as="geometry">
            <mxRectangle width="178" height="58" as="alternateBounds" />
          </mxGeometry>
        </mxCell>
        <mxCell id="9JbMDj_ZPigItXiSbsYy-7" value="&lt;span style=&quot;font-size: 30px;&quot;&gt;34,567&lt;/span&gt;" style="connectable=0;recursiveResize=0;strokeColor=inherit;fillColor=none;align=right;whiteSpace=wrap;html=1;" parent="TxczZguwrJ-QLl2Ewce2-57" vertex="1">
          <mxGeometry x="1508" width="178" height="58" as="geometry">
            <mxRectangle width="178" height="58" as="alternateBounds" />
          </mxGeometry>
        </mxCell>
        <mxCell id="TxczZguwrJ-QLl2Ewce2-59" value="&lt;font style=&quot;font-size: 30px;&quot;&gt;－&lt;/font&gt;" style="connectable=0;recursiveResize=0;strokeColor=inherit;fillColor=default;align=center;whiteSpace=wrap;html=1;" parent="TxczZguwrJ-QLl2Ewce2-57" vertex="1">
          <mxGeometry x="1686" width="284" height="58" as="geometry">
            <mxRectangle width="284" height="58" as="alternateBounds" />
          </mxGeometry>
        </mxCell>
        <mxCell id="TxczZguwrJ-QLl2Ewce2-60" value="&lt;font style=&quot;font-size: 30px;&quot;&gt;－&lt;/font&gt;" style="connectable=0;recursiveResize=0;strokeColor=inherit;fillColor=none;align=center;whiteSpace=wrap;html=1;" parent="TxczZguwrJ-QLl2Ewce2-57" vertex="1">
          <mxGeometry x="1970" width="246" height="58" as="geometry">
            <mxRectangle width="246" height="58" as="alternateBounds" />
          </mxGeometry>
        </mxCell>
        <mxCell id="TxczZguwrJ-QLl2Ewce2-75" style="connectable=0;recursiveResize=0;strokeColor=inherit;fillColor=none;align=center;whiteSpace=wrap;html=1;" parent="TxczZguwrJ-QLl2Ewce2-57" vertex="1">
          <mxGeometry x="2216" width="245" height="58" as="geometry">
            <mxRectangle width="245" height="58" as="alternateBounds" />
          </mxGeometry>
        </mxCell>
        <mxCell id="TxczZguwrJ-QLl2Ewce2-67" style="shape=tableRow;horizontal=0;startSize=0;swimlaneHead=0;swimlaneBody=0;top=0;left=0;bottom=0;right=0;dropTarget=0;collapsible=0;recursiveResize=0;expand=0;fontStyle=0;fillColor=none;strokeColor=inherit;" parent="TxczZguwrJ-QLl2Ewce2-48" vertex="1">
          <mxGeometry y="230" width="2461" height="58" as="geometry" />
        </mxCell>
        <mxCell id="TxczZguwrJ-QLl2Ewce2-68" value="&lt;font style=&quot;font-size: 24px;&quot;&gt;2022-03-06 12:34:56&lt;/font&gt;" style="connectable=0;recursiveResize=0;strokeColor=inherit;fillColor=none;align=center;whiteSpace=wrap;html=1;" parent="TxczZguwrJ-QLl2Ewce2-67" vertex="1">
          <mxGeometry width="245" height="58" as="geometry">
            <mxRectangle width="245" height="58" as="alternateBounds" />
          </mxGeometry>
        </mxCell>
        <mxCell id="9JbMDj_ZPigItXiSbsYy-3" value="&lt;font style=&quot;font-size: 30px;&quot;&gt;事務担当者1&lt;/font&gt;" style="connectable=0;recursiveResize=0;strokeColor=inherit;fillColor=none;align=center;whiteSpace=wrap;html=1;" parent="TxczZguwrJ-QLl2Ewce2-67" vertex="1">
          <mxGeometry x="245" width="245" height="58" as="geometry">
            <mxRectangle width="245" height="58" as="alternateBounds" />
          </mxGeometry>
        </mxCell>
        <mxCell id="TxczZguwrJ-QLl2Ewce2-69" value="&lt;font style=&quot;font-size: 30px;&quot;&gt;データ編集&lt;/font&gt;" style="connectable=0;recursiveResize=0;strokeColor=inherit;fillColor=none;align=center;whiteSpace=wrap;html=1;" parent="TxczZguwrJ-QLl2Ewce2-67" vertex="1">
          <mxGeometry x="490" width="245" height="58" as="geometry">
            <mxRectangle width="245" height="58" as="alternateBounds" />
          </mxGeometry>
        </mxCell>
        <mxCell id="TxczZguwrJ-QLl2Ewce2-70" value="&lt;font style=&quot;font-size: 30px;&quot;&gt;報告対象&lt;/font&gt;" style="connectable=0;recursiveResize=0;strokeColor=inherit;fillColor=none;align=center;whiteSpace=wrap;html=1;" parent="TxczZguwrJ-QLl2Ewce2-67" vertex="1">
          <mxGeometry x="735" width="205" height="58" as="geometry">
            <mxRectangle width="205" height="58" as="alternateBounds" />
          </mxGeometry>
        </mxCell>
        <mxCell id="9JbMDj_ZPigItXiSbsYy-13" value="&lt;span style=&quot;font-size: 30px;&quot;&gt;フリコミ シエンシャハナコ&lt;/span&gt;" style="connectable=0;recursiveResize=0;strokeColor=inherit;fillColor=none;align=left;whiteSpace=wrap;html=1;" parent="TxczZguwrJ-QLl2Ewce2-67" vertex="1">
          <mxGeometry x="940" width="390" height="58" as="geometry">
            <mxRectangle width="390" height="58" as="alternateBounds" />
          </mxGeometry>
        </mxCell>
        <mxCell id="l-1sBg6fgttBjZcaECSn-4" value="&lt;span style=&quot;font-size: 30px;&quot;&gt;2022-12-01&lt;/span&gt;" style="connectable=0;recursiveResize=0;strokeColor=inherit;fillColor=none;align=right;whiteSpace=wrap;html=1;" vertex="1" parent="TxczZguwrJ-QLl2Ewce2-67">
          <mxGeometry x="1330" width="178" height="58" as="geometry">
            <mxRectangle width="178" height="58" as="alternateBounds" />
          </mxGeometry>
        </mxCell>
        <mxCell id="9JbMDj_ZPigItXiSbsYy-8" value="&lt;span style=&quot;font-size: 30px;&quot;&gt;123,456&lt;/span&gt;" style="connectable=0;recursiveResize=0;strokeColor=inherit;fillColor=none;align=right;whiteSpace=wrap;html=1;" parent="TxczZguwrJ-QLl2Ewce2-67" vertex="1">
          <mxGeometry x="1508" width="178" height="58" as="geometry">
            <mxRectangle width="178" height="58" as="alternateBounds" />
          </mxGeometry>
        </mxCell>
        <mxCell id="TxczZguwrJ-QLl2Ewce2-71" value="&lt;font style=&quot;font-size: 30px;&quot;&gt;寄付斡旋(8-2)&lt;/font&gt;" style="connectable=0;recursiveResize=0;strokeColor=inherit;fillColor=default;align=center;whiteSpace=wrap;html=1;" parent="TxczZguwrJ-QLl2Ewce2-67" vertex="1">
          <mxGeometry x="1686" width="284" height="58" as="geometry">
            <mxRectangle width="284" height="58" as="alternateBounds" />
          </mxGeometry>
        </mxCell>
        <mxCell id="TxczZguwrJ-QLl2Ewce2-72" value="&lt;font style=&quot;font-size: 24px;&quot;&gt;少なくとも寄付…&lt;/font&gt;" style="connectable=0;recursiveResize=0;strokeColor=inherit;fillColor=none;align=left;whiteSpace=wrap;html=1;" parent="TxczZguwrJ-QLl2Ewce2-67" vertex="1">
          <mxGeometry x="1970" width="246" height="58" as="geometry">
            <mxRectangle width="246" height="58" as="alternateBounds" />
          </mxGeometry>
        </mxCell>
        <mxCell id="TxczZguwrJ-QLl2Ewce2-76" style="connectable=0;recursiveResize=0;strokeColor=inherit;fillColor=none;align=center;whiteSpace=wrap;html=1;" parent="TxczZguwrJ-QLl2Ewce2-67" vertex="1">
          <mxGeometry x="2216" width="245" height="58" as="geometry">
            <mxRectangle width="245" height="58" as="alternateBounds" />
          </mxGeometry>
        </mxCell>
        <mxCell id="TxczZguwrJ-QLl2Ewce2-78" style="shape=tableRow;horizontal=0;startSize=0;swimlaneHead=0;swimlaneBody=0;top=0;left=0;bottom=0;right=0;dropTarget=0;collapsible=0;recursiveResize=0;expand=0;fontStyle=0;fillColor=none;strokeColor=inherit;" parent="TxczZguwrJ-QLl2Ewce2-48" vertex="1">
          <mxGeometry y="288" width="2461" height="58" as="geometry" />
        </mxCell>
        <mxCell id="TxczZguwrJ-QLl2Ewce2-79" value="&lt;font style=&quot;font-size: 24px;&quot;&gt;2022-03-06 12:34:56&lt;/font&gt;" style="connectable=0;recursiveResize=0;strokeColor=inherit;fillColor=none;align=center;whiteSpace=wrap;html=1;" parent="TxczZguwrJ-QLl2Ewce2-78" vertex="1">
          <mxGeometry width="245" height="58" as="geometry">
            <mxRectangle width="245" height="58" as="alternateBounds" />
          </mxGeometry>
        </mxCell>
        <mxCell id="9JbMDj_ZPigItXiSbsYy-4" value="&lt;font style=&quot;font-size: 30px;&quot;&gt;事務担当者3&lt;/font&gt;" style="connectable=0;recursiveResize=0;strokeColor=inherit;fillColor=none;align=center;whiteSpace=wrap;html=1;" parent="TxczZguwrJ-QLl2Ewce2-78" vertex="1">
          <mxGeometry x="245" width="245" height="58" as="geometry">
            <mxRectangle width="245" height="58" as="alternateBounds" />
          </mxGeometry>
        </mxCell>
        <mxCell id="TxczZguwrJ-QLl2Ewce2-80" value="&lt;div&gt;&lt;span style=&quot;font-size: 30px; background-color: initial;&quot;&gt;初回登録&lt;/span&gt;&lt;br&gt;&lt;/div&gt;" style="connectable=0;recursiveResize=0;strokeColor=inherit;fillColor=none;align=center;whiteSpace=wrap;html=1;" parent="TxczZguwrJ-QLl2Ewce2-78" vertex="1">
          <mxGeometry x="490" width="245" height="58" as="geometry">
            <mxRectangle width="245" height="58" as="alternateBounds" />
          </mxGeometry>
        </mxCell>
        <mxCell id="TxczZguwrJ-QLl2Ewce2-81" value="&lt;font style=&quot;font-size: 30px;&quot;&gt;タスク計上&lt;/font&gt;" style="connectable=0;recursiveResize=0;strokeColor=inherit;fillColor=none;align=center;whiteSpace=wrap;html=1;" parent="TxczZguwrJ-QLl2Ewce2-78" vertex="1">
          <mxGeometry x="735" width="205" height="58" as="geometry">
            <mxRectangle width="205" height="58" as="alternateBounds" />
          </mxGeometry>
        </mxCell>
        <mxCell id="9JbMDj_ZPigItXiSbsYy-14" value="－" style="connectable=0;recursiveResize=0;strokeColor=inherit;fillColor=none;align=center;whiteSpace=wrap;html=1;" parent="TxczZguwrJ-QLl2Ewce2-78" vertex="1">
          <mxGeometry x="940" width="390" height="58" as="geometry">
            <mxRectangle width="390" height="58" as="alternateBounds" />
          </mxGeometry>
        </mxCell>
        <mxCell id="l-1sBg6fgttBjZcaECSn-5" value="&lt;span style=&quot;font-size: 30px;&quot;&gt;2022-12-01&lt;/span&gt;" style="connectable=0;recursiveResize=0;strokeColor=inherit;fillColor=none;align=right;whiteSpace=wrap;html=1;" vertex="1" parent="TxczZguwrJ-QLl2Ewce2-78">
          <mxGeometry x="1330" width="178" height="58" as="geometry">
            <mxRectangle width="178" height="58" as="alternateBounds" />
          </mxGeometry>
        </mxCell>
        <mxCell id="9JbMDj_ZPigItXiSbsYy-9" value="&lt;span style=&quot;font-size: 30px;&quot;&gt;123,456&lt;/span&gt;" style="connectable=0;recursiveResize=0;strokeColor=inherit;fillColor=none;align=right;whiteSpace=wrap;html=1;" parent="TxczZguwrJ-QLl2Ewce2-78" vertex="1">
          <mxGeometry x="1508" width="178" height="58" as="geometry">
            <mxRectangle width="178" height="58" as="alternateBounds" />
          </mxGeometry>
        </mxCell>
        <mxCell id="TxczZguwrJ-QLl2Ewce2-82" value="&lt;font style=&quot;font-size: 30px;&quot;&gt;－&lt;/font&gt;" style="connectable=0;recursiveResize=0;strokeColor=inherit;fillColor=default;align=center;whiteSpace=wrap;html=1;" parent="TxczZguwrJ-QLl2Ewce2-78" vertex="1">
          <mxGeometry x="1686" width="284" height="58" as="geometry">
            <mxRectangle width="284" height="58" as="alternateBounds" />
          </mxGeometry>
        </mxCell>
        <mxCell id="TxczZguwrJ-QLl2Ewce2-83" value="&lt;span style=&quot;font-size: 30px; text-align: center;&quot;&gt;－&lt;/span&gt;" style="connectable=0;recursiveResize=0;strokeColor=inherit;fillColor=none;align=left;whiteSpace=wrap;html=1;" parent="TxczZguwrJ-QLl2Ewce2-78" vertex="1">
          <mxGeometry x="1970" width="246" height="58" as="geometry">
            <mxRectangle width="246" height="58" as="alternateBounds" />
          </mxGeometry>
        </mxCell>
        <mxCell id="TxczZguwrJ-QLl2Ewce2-84" style="connectable=0;recursiveResize=0;strokeColor=inherit;fillColor=none;align=center;whiteSpace=wrap;html=1;" parent="TxczZguwrJ-QLl2Ewce2-78" vertex="1">
          <mxGeometry x="2216" width="245" height="58" as="geometry">
            <mxRectangle width="245" height="58" as="alternateBounds" />
          </mxGeometry>
        </mxCell>
        <mxCell id="9JbMDj_ZPigItXiSbsYy-122" value="" style="shape=link;html=1;rounded=0;" parent="cFaB45KztUIKXS-_cTrr-14" edge="1">
          <mxGeometry width="100" relative="1" as="geometry">
            <mxPoint x="28" y="2070" as="sourcePoint" />
            <mxPoint x="2504" y="2080" as="targetPoint" />
          </mxGeometry>
        </mxCell>
        <mxCell id="9JbMDj_ZPigItXiSbsYy-147" value="&lt;div style=&quot;&quot;&gt;&lt;span style=&quot;background-color: initial;&quot;&gt;&lt;font style=&quot;font-size: 30px;&quot;&gt;123,456&lt;/font&gt;&lt;/span&gt;&lt;/div&gt;" style="rounded=0;whiteSpace=wrap;html=1;align=right;" parent="cFaB45KztUIKXS-_cTrr-14" vertex="1">
          <mxGeometry x="1521" y="2267" width="220" height="48" as="geometry" />
        </mxCell>
        <mxCell id="9JbMDj_ZPigItXiSbsYy-148" value="&lt;div style=&quot;&quot;&gt;&lt;span style=&quot;background-color: initial;&quot;&gt;&lt;font style=&quot;font-size: 30px;&quot;&gt;思想団体A&lt;/font&gt;&lt;/span&gt;&lt;/div&gt;" style="rounded=0;whiteSpace=wrap;html=1;align=left;" parent="cFaB45KztUIKXS-_cTrr-14" vertex="1">
          <mxGeometry x="1521" y="2477" width="220" height="48" as="geometry" />
        </mxCell>
        <mxCell id="9JbMDj_ZPigItXiSbsYy-149" value="&lt;div style=&quot;&quot;&gt;&lt;span style=&quot;background-color: initial;&quot;&gt;&lt;font style=&quot;font-size: 30px;&quot;&gt;収支 花子&lt;/font&gt;&lt;/span&gt;&lt;/div&gt;" style="rounded=0;whiteSpace=wrap;html=1;align=left;" parent="cFaB45KztUIKXS-_cTrr-14" vertex="1">
          <mxGeometry x="1519" y="2552" width="220" height="48" as="geometry" />
        </mxCell>
        <mxCell id="9JbMDj_ZPigItXiSbsYy-150" value="&lt;div style=&quot;&quot;&gt;&lt;span style=&quot;background-color: initial;&quot;&gt;&lt;font style=&quot;font-size: 30px;&quot;&gt;東京都千代田区霞が関&lt;/font&gt;&lt;/span&gt;&lt;/div&gt;" style="rounded=0;whiteSpace=wrap;html=1;align=left;verticalAlign=top;" parent="cFaB45KztUIKXS-_cTrr-14" vertex="1">
          <mxGeometry x="1517" y="2627" width="343" height="144" as="geometry" />
        </mxCell>
        <mxCell id="9JbMDj_ZPigItXiSbsYy-151" value="&lt;font style=&quot;font-size: 84px;&quot;&gt;○&lt;/font&gt;" style="text;html=1;strokeColor=none;fillColor=none;align=center;verticalAlign=middle;whiteSpace=wrap;rounded=0;fontSize=60;" parent="cFaB45KztUIKXS-_cTrr-14" vertex="1">
          <mxGeometry x="1520" y="2137" width="60" height="30" as="geometry" />
        </mxCell>
        <mxCell id="9JbMDj_ZPigItXiSbsYy-152" value="&lt;font style=&quot;font-size: 48px;&quot;&gt;●&lt;/font&gt;" style="text;html=1;strokeColor=none;fillColor=none;align=center;verticalAlign=middle;whiteSpace=wrap;rounded=0;fontSize=48;" parent="cFaB45KztUIKXS-_cTrr-14" vertex="1">
          <mxGeometry x="1520" y="2139" width="60" height="30" as="geometry" />
        </mxCell>
        <mxCell id="9JbMDj_ZPigItXiSbsYy-153" value="&lt;font style=&quot;font-size: 30px;&quot;&gt;報告対象&lt;/font&gt;" style="text;html=1;strokeColor=none;fillColor=none;align=left;verticalAlign=middle;whiteSpace=wrap;rounded=0;" parent="cFaB45KztUIKXS-_cTrr-14" vertex="1">
          <mxGeometry x="1575" y="2126" width="275" height="60" as="geometry" />
        </mxCell>
        <mxCell id="9JbMDj_ZPigItXiSbsYy-154" value="&lt;font style=&quot;font-size: 84px;&quot;&gt;○&lt;/font&gt;" style="text;html=1;strokeColor=none;fillColor=none;align=center;verticalAlign=middle;whiteSpace=wrap;rounded=0;fontSize=60;" parent="cFaB45KztUIKXS-_cTrr-14" vertex="1">
          <mxGeometry x="1710" y="2137" width="60" height="30" as="geometry" />
        </mxCell>
        <mxCell id="9JbMDj_ZPigItXiSbsYy-155" value="&lt;font style=&quot;font-size: 30px;&quot;&gt;生活費(報告対象外)&lt;/font&gt;" style="text;html=1;strokeColor=none;fillColor=none;align=left;verticalAlign=middle;whiteSpace=wrap;rounded=0;" parent="cFaB45KztUIKXS-_cTrr-14" vertex="1">
          <mxGeometry x="1762" y="2127" width="275" height="60" as="geometry" />
        </mxCell>
        <mxCell id="9JbMDj_ZPigItXiSbsYy-156" value="&lt;div style=&quot;&quot;&gt;&lt;font style=&quot;font-size: 30px;&quot;&gt;▼ (8)寄付(あっせん)&lt;/font&gt;&lt;/div&gt;" style="rounded=0;whiteSpace=wrap;html=1;align=left;fillColor=#FFFFFF;" parent="cFaB45KztUIKXS-_cTrr-14" vertex="1">
          <mxGeometry x="1523" y="2198" width="347" height="48" as="geometry" />
        </mxCell>
        <mxCell id="9JbMDj_ZPigItXiSbsYy-157" value="&lt;div style=&quot;&quot;&gt;&lt;font style=&quot;font-size: 30px;&quot;&gt;▼ 3.政治団体&lt;/font&gt;&lt;/div&gt;" style="rounded=0;whiteSpace=wrap;html=1;align=left;fillColor=#FFFFFF;" parent="cFaB45KztUIKXS-_cTrr-14" vertex="1">
          <mxGeometry x="1918" y="2198" width="346" height="48" as="geometry" />
        </mxCell>
        <mxCell id="9JbMDj_ZPigItXiSbsYy-158" value="&lt;div style=&quot;&quot;&gt;&lt;span style=&quot;background-color: initial;&quot;&gt;&lt;font style=&quot;font-size: 30px;&quot;&gt;2022-12-01&lt;/font&gt;&lt;/span&gt;&lt;/div&gt;" style="rounded=0;whiteSpace=wrap;html=1;align=left;" parent="cFaB45KztUIKXS-_cTrr-14" vertex="1">
          <mxGeometry x="1521" y="2337" width="220" height="41" as="geometry" />
        </mxCell>
        <mxCell id="9JbMDj_ZPigItXiSbsYy-159" value="&lt;div style=&quot;&quot;&gt;&lt;br&gt;&lt;/div&gt;" style="rounded=0;whiteSpace=wrap;html=1;align=left;verticalAlign=top;" parent="cFaB45KztUIKXS-_cTrr-14" vertex="1">
          <mxGeometry x="1520" y="2791" width="340" height="48" as="geometry" />
        </mxCell>
        <mxCell id="9JbMDj_ZPigItXiSbsYy-160" value="&lt;font style=&quot;font-size: 30px;&quot;&gt;☑遺贈&lt;/font&gt;" style="text;html=1;align=left;verticalAlign=middle;whiteSpace=wrap;rounded=0;" parent="cFaB45KztUIKXS-_cTrr-14" vertex="1">
          <mxGeometry x="1888" y="2805" width="180" height="30" as="geometry" />
        </mxCell>
        <mxCell id="9JbMDj_ZPigItXiSbsYy-161" value="&lt;div style=&quot;&quot;&gt;&lt;span style=&quot;background-color: initial;&quot;&gt;&lt;font style=&quot;font-size: 30px;&quot;&gt;2012-10-01&lt;/font&gt;&lt;/span&gt;&lt;/div&gt;" style="rounded=0;whiteSpace=wrap;html=1;align=left;" parent="cFaB45KztUIKXS-_cTrr-14" vertex="1">
          <mxGeometry x="1521" y="2407" width="220" height="48" as="geometry" />
        </mxCell>
        <mxCell id="9JbMDj_ZPigItXiSbsYy-162" value="&lt;div style=&quot;&quot;&gt;&lt;span style=&quot;background-color: initial;&quot;&gt;&lt;font style=&quot;font-size: 30px;&quot;&gt;2012-11-15&lt;/font&gt;&lt;/span&gt;&lt;/div&gt;" style="rounded=0;whiteSpace=wrap;html=1;align=left;" parent="cFaB45KztUIKXS-_cTrr-14" vertex="1">
          <mxGeometry x="1911" y="2407" width="220" height="48" as="geometry" />
        </mxCell>
        <mxCell id="9JbMDj_ZPigItXiSbsYy-163" value="&lt;span style=&quot;font-size: 24px;&quot;&gt;Calendar&lt;/span&gt;" style="rounded=1;whiteSpace=wrap;html=1;" parent="cFaB45KztUIKXS-_cTrr-14" vertex="1">
          <mxGeometry x="1754" y="2406" width="120" height="48" as="geometry" />
        </mxCell>
        <mxCell id="9JbMDj_ZPigItXiSbsYy-164" value="&lt;span style=&quot;font-size: 24px;&quot;&gt;Calendar&lt;/span&gt;" style="rounded=1;whiteSpace=wrap;html=1;" parent="cFaB45KztUIKXS-_cTrr-14" vertex="1">
          <mxGeometry x="2151" y="2410" width="120" height="48" as="geometry" />
        </mxCell>
        <mxCell id="9JbMDj_ZPigItXiSbsYy-165" value="&lt;font style=&quot;font-size: 30px;&quot;&gt;☑必要&lt;/font&gt;" style="text;html=1;strokeColor=none;fillColor=none;align=left;verticalAlign=middle;whiteSpace=wrap;rounded=0;" parent="cFaB45KztUIKXS-_cTrr-14" vertex="1">
          <mxGeometry x="1518" y="2873" width="180" height="30" as="geometry" />
        </mxCell>
        <mxCell id="9JbMDj_ZPigItXiSbsYy-166" value="&lt;font style=&quot;font-size: 84px;&quot;&gt;○&lt;/font&gt;" style="text;html=1;strokeColor=none;fillColor=none;align=center;verticalAlign=middle;whiteSpace=wrap;rounded=0;fontSize=60;" parent="cFaB45KztUIKXS-_cTrr-14" vertex="1">
          <mxGeometry x="2023" y="2137" width="60" height="30" as="geometry" />
        </mxCell>
        <mxCell id="9JbMDj_ZPigItXiSbsYy-167" value="&lt;font style=&quot;font-size: 30px;&quot;&gt;政治活動報告対象外(廃止予定)&lt;/font&gt;" style="text;html=1;strokeColor=none;fillColor=none;align=left;verticalAlign=middle;whiteSpace=wrap;rounded=0;" parent="cFaB45KztUIKXS-_cTrr-14" vertex="1">
          <mxGeometry x="2079" y="2127" width="421" height="60" as="geometry" />
        </mxCell>
        <mxCell id="9JbMDj_ZPigItXiSbsYy-168" value="&lt;font style=&quot;font-size: 30px;&quot;&gt;☑前例と異なる処理&lt;/font&gt;" style="text;html=1;strokeColor=none;fillColor=none;align=left;verticalAlign=middle;whiteSpace=wrap;rounded=0;" parent="cFaB45KztUIKXS-_cTrr-14" vertex="1">
          <mxGeometry x="1512" y="2943" width="408" height="30" as="geometry" />
        </mxCell>
        <mxCell id="9JbMDj_ZPigItXiSbsYy-169" value="&lt;span style=&quot;font-size: 30px;&quot;&gt;書証を保全&lt;/span&gt;" style="rounded=1;whiteSpace=wrap;html=1;" parent="cFaB45KztUIKXS-_cTrr-14" vertex="1">
          <mxGeometry x="1856" y="2933" width="264" height="48" as="geometry" />
        </mxCell>
        <mxCell id="9JbMDj_ZPigItXiSbsYy-170" value="" style="rounded=0;whiteSpace=wrap;html=1;align=left;verticalAlign=top;fillColor=#FFFFFF;" parent="cFaB45KztUIKXS-_cTrr-14" vertex="1">
          <mxGeometry x="1502" y="3028" width="748" height="144" as="geometry" />
        </mxCell>
        <mxCell id="9JbMDj_ZPigItXiSbsYy-172" value="&lt;font style=&quot;font-size: 30px;&quot;&gt;*意見付記&lt;/font&gt;" style="rounded=0;whiteSpace=wrap;html=1;align=right;dashed=1;dashPattern=8 8;verticalAlign=bottom;" parent="cFaB45KztUIKXS-_cTrr-14" vertex="1">
          <mxGeometry x="62" y="2118" width="230" height="46" as="geometry" />
        </mxCell>
        <mxCell id="9JbMDj_ZPigItXiSbsYy-173" value="&lt;div style=&quot;&quot;&gt;&lt;font style=&quot;font-size: 30px;&quot;&gt;3&lt;/font&gt;&lt;/div&gt;" style="rounded=0;whiteSpace=wrap;html=1;align=right;verticalAlign=top;fillColor=#CCCCCC;" parent="cFaB45KztUIKXS-_cTrr-14" vertex="1">
          <mxGeometry x="320" y="2116" width="130" height="48" as="geometry" />
        </mxCell>
        <mxCell id="9JbMDj_ZPigItXiSbsYy-174" value="&lt;font style=&quot;font-size: 30px;&quot;&gt;人目&lt;/font&gt;" style="rounded=0;whiteSpace=wrap;html=1;align=left;dashed=1;dashPattern=8 8;verticalAlign=bottom;" parent="cFaB45KztUIKXS-_cTrr-14" vertex="1">
          <mxGeometry x="474" y="2118" width="230" height="46" as="geometry" />
        </mxCell>
        <mxCell id="9JbMDj_ZPigItXiSbsYy-175" value="&lt;span style=&quot;font-size: 30px;&quot;&gt;報告除外で処理されていますが、××という条文上の理由で報告するのが適当と思われます。&lt;/span&gt;" style="rounded=0;whiteSpace=wrap;html=1;align=left;verticalAlign=top;fillColor=#FFFFFF;" parent="cFaB45KztUIKXS-_cTrr-14" vertex="1">
          <mxGeometry x="312" y="2258" width="1048" height="202" as="geometry" />
        </mxCell>
        <mxCell id="9JbMDj_ZPigItXiSbsYy-176" value="&lt;span style=&quot;font-size: 30px;&quot;&gt;詳細&lt;/span&gt;" style="rounded=0;whiteSpace=wrap;html=1;align=right;dashed=1;dashPattern=8 8;verticalAlign=bottom;" parent="cFaB45KztUIKXS-_cTrr-14" vertex="1">
          <mxGeometry x="61" y="2258" width="230" height="46" as="geometry" />
        </mxCell>
        <mxCell id="9JbMDj_ZPigItXiSbsYy-177" value="&lt;span style=&quot;font-size: 30px;&quot;&gt;結論&lt;/span&gt;" style="rounded=0;whiteSpace=wrap;html=1;align=right;dashed=1;dashPattern=8 8;verticalAlign=bottom;" parent="cFaB45KztUIKXS-_cTrr-14" vertex="1">
          <mxGeometry x="61" y="2188" width="230" height="46" as="geometry" />
        </mxCell>
        <mxCell id="9JbMDj_ZPigItXiSbsYy-178" value="&lt;div style=&quot;&quot;&gt;&lt;font style=&quot;font-size: 30px;&quot;&gt;▼ 会計責任者&lt;/font&gt;&lt;/div&gt;" style="rounded=0;whiteSpace=wrap;html=1;align=left;" parent="cFaB45KztUIKXS-_cTrr-14" vertex="1">
          <mxGeometry x="316" y="2188" width="347" height="48" as="geometry" />
        </mxCell>
        <mxCell id="9JbMDj_ZPigItXiSbsYy-179" value="&lt;font style=&quot;font-size: 30px;&quot;&gt;を支持&lt;/font&gt;" style="rounded=0;whiteSpace=wrap;html=1;align=left;dashed=1;dashPattern=8 8;verticalAlign=bottom;" parent="cFaB45KztUIKXS-_cTrr-14" vertex="1">
          <mxGeometry x="674" y="2188" width="230" height="46" as="geometry" />
        </mxCell>
        <mxCell id="9JbMDj_ZPigItXiSbsYy-180" value="&lt;span style=&quot;font-size: 30px;&quot;&gt;保存&lt;/span&gt;" style="rounded=1;whiteSpace=wrap;html=1;" parent="cFaB45KztUIKXS-_cTrr-14" vertex="1">
          <mxGeometry x="1340" y="3440" width="210" height="60" as="geometry" />
        </mxCell>
        <mxCell id="9JbMDj_ZPigItXiSbsYy-181" value="&lt;span style=&quot;font-size: 30px;&quot;&gt;キャンセル&lt;/span&gt;" style="rounded=1;whiteSpace=wrap;html=1;" parent="cFaB45KztUIKXS-_cTrr-14" vertex="1">
          <mxGeometry x="1110" y="3440" width="210" height="60" as="geometry" />
        </mxCell>
      </root>
    </mxGraphModel>
  </diagram>
</mxfile>
